@startuml class-rtmpflvqueue

!include https://unpkg.com/plantuml-style-c4@latest/core.puml
' uncomment the following line and comment the first to use locally
'!include core.puml
!include https://unpkg.com/plantuml-style-c4@latest/class-diagram-helper.puml
' uncomment the following line and comment the first to use locally
'!include class-diagram-helper.puml

GREY_ARROW

interface av.Muxer {
}

interface av.Demuxer {
}

interface av.MuxCloser {
}

interface av.DemuxCloser {
}

class container.flv.Demuxer {
    prober *Prober
	bufr   *bufio.Reader
}

class container.flv.Muxer {
    bufw    WriteFlusher
	b       []byte
	streams []av.CodecData
}

interface container.flv.WriteFlusher {
}
interface io.Writer {
}
interface http.Flusher {
}

class container.flv.Prober {
    Streams  []av.CodecData
	CachedPkts []av.Packet
}

' av.MuxCloser-|>av.Muxer
' av.DemuxCloser-|>av.Demuxer

container.flv.Demuxer-->container.flv.Prober
av.Muxer<|..container.flv.Muxer
av.Demuxer<|..container.flv.Demuxer
container.flv.Muxer-->container.flv.WriteFlusher
container.flv.WriteFlusher-->http.Flusher
container.flv.WriteFlusher-->io.Writer
http.Flusher<|..http.ResponseWriter

interface protocol.rtmp.Conn {
	ReadConnect() error
	ReadCommand() error
	RemoteAddr() string
	ConnInfo() ConnInfo

    Dial(url string) error
	HandshakeClient() error
	ConnectPublish() error
	ConnectPlay() error

	HandshakeServer() error
	IsPublishing() bool
	IsPlaying() bool
}

protocol.rtmp.Conn <|.. protocol.rtmp.conn
av.MuxCloser <|-- protocol.rtmp.Conn
av.DemuxCloser <|-- protocol.rtmp.Conn

av.MuxCloser<|..avque.Queuer
av.DemuxCloser<|..avque.QueueCursor

@enduml